<?xml version="1.0" encoding="UTF-8" standalone="no"?>
<!-- Created with Inkscape (http://www.inkscape.org/) -->

<svg
   xmlns:dc="http://purl.org/dc/elements/1.1/"
   xmlns:cc="http://creativecommons.org/ns#"
   xmlns:rdf="http://www.w3.org/1999/02/22-rdf-syntax-ns#"
   xmlns:svg="http://www.w3.org/2000/svg"
   xmlns="http://www.w3.org/2000/svg"
   xmlns:sodipodi="http://sodipodi.sourceforge.net/DTD/sodipodi-0.dtd"
   xmlns:inkscape="http://www.inkscape.org/namespaces/inkscape"
   width="164.84534"
   height="86.318748"
   viewBox="0 0 43.615329 22.838502"
   version="1.1"
   id="svg22370"
   inkscape:version="0.92.0 r15299"
   sodipodi:docname="new river.svg">
  <defs
     id="defs22364">
    <clipPath
       id="clipPath22301"
       clipPathUnits="userSpaceOnUse">
      <path
         inkscape:connector-curvature="0"
         id="path22299"
         d="M 0,0 H 595.276 V 841.89 H 0 Z" />
    </clipPath>
  </defs>
  <sodipodi:namedview
     id="base"
     pagecolor="#ffffff"
     bordercolor="#666666"
     borderopacity="1.0"
     inkscape:pageopacity="0.0"
     inkscape:pageshadow="2"
     inkscape:zoom="5.4746757"
     inkscape:cx="81.92266"
     inkscape:cy="42.659376"
     inkscape:document-units="mm"
     inkscape:current-layer="layer1"
     showgrid="false"
     fit-margin-top="0"
     fit-margin-left="0"
     fit-margin-right="0"
     fit-margin-bottom="0"
     units="px"
     inkscape:window-width="1280"
     inkscape:window-height="744"
     inkscape:window-x="-4"
     inkscape:window-y="-4"
     inkscape:window-maximized="1" />
  <metadata
     id="metadata22367">
    <rdf:RDF>
      <cc:Work
         rdf:about="">
        <dc:format>image/svg+xml</dc:format>
        <dc:type
           rdf:resource="http://purl.org/dc/dcmitype/StillImage" />
        <dc:title></dc:title>
      </cc:Work>
    </rdf:RDF>
  </metadata>
  <g
     inkscape:label="Layer 1"
     inkscape:groupmode="layer"
     id="layer1"
     transform="translate(-83.402009,-190.19847)">
    <path
       inkscape:connector-curvature="0"
       id="path22305"
       style="fill:#16325f;fill-opacity:1;fill-rule:nonzero;stroke:none;stroke-width:0.35277778"
       d="m 92.754503,190.33076 v 10.54029 H 91.01037 l -5.616222,-7.5946 v 7.5946 h -1.859845 v -10.54029 h 1.838325 l 5.522031,7.41257 v -7.41257 z m 2.059517,0 v 10.54029 h 7.35647 v -1.62771 h -5.496626 v -2.92841 h 5.386206 v -1.62807 h -5.386206 v -2.72803 h 5.496626 v -1.62807 z m 20.67983,0 -2.07433,7.83731 -2.17982,-7.83731 h -1.49366 l -2.19498,7.83907 -2.07504,-7.83907 h -2.06375 l 3.09739,10.54029 h 1.90323 l 2.07257,-7.5378 2.08739,7.5378 h 1.90359 l 3.08081,-10.54029 z m -27.586514,16.90405 c 1.070681,0 1.81857,-0.68439 1.81857,-1.66405 0,-0.98002 -0.747889,-1.66441 -1.81857,-1.66441 h -2.513188 v 3.32846 z m 3.725686,-1.66405 c 0,1.94416 -1.316919,2.87055 -2.529063,3.10268 l 2.72415,4.14549 h -2.166761 l -2.511425,-3.95605 h -1.755775 v 3.95605 h -1.859845 v -10.54065 h 4.57835 c 2.105731,0 3.520369,1.32292 3.520369,3.29248 m 1.864431,7.24817 h 1.859844 v -10.54029 h -1.859844 z m 11.853327,-10.54065 -3.2833,8.34355 -3.26813,-8.34355 h -2.103967 l 4.297187,10.54065 h 2.16464 l 4.29719,-10.54065 z m 17.61349,4.95653 c 1.07068,0 1.81857,-0.68439 1.81857,-1.66405 0,-0.98002 -0.74789,-1.66441 -1.81857,-1.66441 h -2.51319 v 3.32846 z m 3.92077,5.58412 h -2.16676 l -2.51107,-3.95605 h -1.75613 v 3.95605 h -1.85984 v -10.54065 h 4.57835 c 2.10573,0 3.52037,1.32292 3.52037,3.29248 0,1.94416 -1.31692,2.87055 -2.52907,3.10268 z m -18.22097,0.0857 0.37395,-0.12947 c 0.54433,-0.18839 1.26118,-0.40676 1.97696,-0.42263 0.64065,-0.0159 1.24672,0.11289 1.83233,0.23742 l 0.0166,0.004 c 0.37324,0.079 0.72602,0.15381 1.08091,0.19261 0.78458,0.0857 1.61643,-0.0166 2.61867,-0.32173 l 0.19685,-0.0596 v -1.74837 l -0.36407,0.11078 c -0.92533,0.28151 -1.68416,0.37676 -2.38901,0.30021 -0.32632,-0.0356 -0.66534,-0.1076 -1.02411,-0.1838 l -0.0166,-0.004 c -0.61772,-0.13124 -1.25624,-0.26635 -1.96497,-0.24977 -0.79516,0.018 -1.5674,0.25223 -2.15124,0.45402 l -0.18627,0.0646 z m 0,-4.21182 0.37395,-0.12947 c 0.54433,-0.18838 1.26118,-0.40675 1.97696,-0.42262 0.64065,-0.0159 1.24672,0.11288 1.83233,0.23742 l 0.0166,0.004 c 0.37324,0.079 0.72602,0.15417 1.08091,0.19262 0.78458,0.0857 1.61678,-0.0166 2.61867,-0.32173 l 0.19685,-0.0596 v -1.74837 l -0.36407,0.11077 c -0.92533,0.28152 -1.68416,0.37677 -2.38901,0.30022 -0.32632,-0.0356 -0.66534,-0.1076 -1.02411,-0.18345 l -0.0166,-0.004 c -0.61772,-0.13123 -1.25624,-0.2667 -1.96497,-0.24976 -0.79516,0.0176 -1.5674,0.25188 -2.15124,0.45367 l -0.18627,0.0646 z m 0,-4.21181 0.37395,-0.12947 c 0.54433,-0.18838 1.26118,-0.40675 1.97696,-0.42228 0.64065,-0.0162 1.24672,0.11289 1.83233,0.23707 l 0.0166,0.004 c 0.37324,0.0794 0.72602,0.15416 1.08091,0.19297 0.78458,0.0854 1.61678,-0.0169 2.61867,-0.32209 l 0.19685,-0.0596 v -1.74836 l -0.36407,0.11077 c -0.92533,0.28152 -1.68416,0.37677 -2.38901,0.30021 -0.32702,-0.0356 -0.66569,-0.10759 -1.02411,-0.18379 l -0.0176,-0.004 c -0.61736,-0.13124 -1.25554,-0.26564 -1.96391,-0.24942 -0.79516,0.0176 -1.5674,0.25189 -2.15124,0.45368 l -0.18627,0.0649 z m 0.37395,-0.12947 c 0.54433,-0.18838 1.26118,-0.40675 1.97696,-0.42263 0.64065,-0.0159 1.24672,0.11324 1.83233,0.23742 l 0.0166,0.004 c 0.37324,0.079 0.72602,0.15416 1.08126,0.19297 0.78423,0.0854 1.61643,-0.0169 2.61797,-0.32209 l 0.19685,-0.0596 v -1.74836 l -0.36372,0.11077 c -0.92533,0.28152 -1.68416,0.37677 -2.38901,0.30021 -0.32702,-0.0356 -0.66569,-0.10759 -1.02411,-0.18379 l -0.0176,-0.004 c -0.61736,-0.13088 -1.25554,-0.26564 -1.96391,-0.24942 -0.79516,0.0176 -1.56704,0.25189 -2.15124,0.45403 l -0.18627,0.0646 v 1.75542 z m 0,4.21181 c 0.54433,-0.18838 1.26118,-0.40675 1.97696,-0.42262 0.64065,-0.0159 1.24672,0.11324 1.83233,0.23742 l 0.0166,0.004 c 0.37324,0.079 0.72602,0.15417 1.08126,0.19262 0.78423,0.0857 1.61643,-0.0166 2.61797,-0.32173 l 0.19685,-0.06 v -1.74801 l -0.36372,0.11077 c -0.92533,0.28152 -1.68416,0.37677 -2.38901,0.30022 -0.32632,-0.0356 -0.66534,-0.1076 -1.02411,-0.1838 l -0.0166,-0.004 c -0.61772,-0.13088 -1.25624,-0.26635 -1.96497,-0.24941 -0.79516,0.0176 -1.56704,0.25188 -2.15124,0.45367 l -0.18627,0.0649 v 1.75542 z m 0,4.21182 c 0.54433,-0.18839 1.26118,-0.40676 1.97696,-0.42263 0.64065,-0.0159 1.24672,0.11324 1.83233,0.23742 l 0.0166,0.004 c 0.37324,0.079 0.72602,0.15381 1.08126,0.19261 0.78423,0.0857 1.61608,-0.0166 2.61797,-0.32173 l 0.19685,-0.0596 v -1.74837 l -0.36372,0.11078 c -0.92533,0.28151 -1.68416,0.37641 -2.38901,0.30021 -0.32632,-0.0356 -0.66534,-0.1076 -1.02411,-0.1838 l -0.0166,-0.004 c -0.61772,-0.13124 -1.25624,-0.26635 -1.96497,-0.24977 -0.79516,0.018 -1.56704,0.25188 -2.15124,0.45402 l -0.18627,0.0646 v 1.75578 z" />
  </g>
</svg>
