<svg viewBox="0 0 130 40" fill="none" xmlns="http://www.w3.org/2000/svg">
<path d="M40.0762 40H0V0H40.0762V40ZM21.585 21.7646C24.1553 21.0893 26.2626 23.1149 26.2021 26.0039C26.1762 27.2564 25.8022 28.5823 25.0244 29.4189C25.8231 28.7928 26.7872 28.0378 27.4824 27.5137C28.0433 26.8382 28.5524 25.3615 28.5771 24.1631C28.6363 21.2832 26.692 19.2557 24.3984 19.7627C24.9784 19.3412 25.5606 18.9342 26.084 18.5654C26.1299 18.533 26.1736 18.4983 26.2178 18.4648C28.5276 17.8067 30.76 19.6293 30.8105 22.3418C30.8351 23.6694 30.3809 24.9479 29.5488 25.8965C30.3649 25.2616 31.2959 24.5538 31.9961 23.9902C32.6137 23.1695 32.9853 21.7805 32.9854 20.6055C32.9854 17.9285 31.2157 16.1372 29.0098 16.4873C29.6684 16.0216 30.245 15.5904 30.7881 15.2168C31.8691 14.4736 32.3946 13.1264 32.3613 11.6807C32.328 10.1796 31.8799 9.06249 31.1045 8.29102C30.0111 7.20472 28.6579 6.94242 26.5859 6.94238H17.1826L14.5264 8.39453L24.0635 8.39941C26.1048 8.39944 27.3401 8.64183 28.4434 9.51172C29.5232 10.3644 30.0987 11.6884 30.0371 13.4258C29.9927 14.6685 29.436 16.165 28.3574 16.9414C27.7479 17.3741 27.2068 17.7668 26.2939 18.4082C27.312 17.6069 27.8446 16.5226 27.877 15.1396C27.9484 12.0106 26.1921 9.8868 22.3965 9.88672H11.7988L8.91602 11.4639L19.4414 11.4688C21.8229 11.4688 22.9755 11.8864 23.9395 12.6787C24.8789 13.4502 25.5211 15.0906 25.4385 16.7148C25.3447 18.5567 24.6473 19.6495 23.5625 20.3545C22.8054 20.893 22.4769 21.1206 21.5928 21.7598C22.5773 21.0211 23.0713 19.935 23.0986 18.3564C23.1282 16.6929 22.4565 15.0187 20.9414 14.0762C19.8431 13.3873 18.5893 13.0918 16.4248 13.0918H5.94824L2.81836 14.8086L13.2627 14.8145C15.6086 14.8145 17.2434 15.0581 18.4453 15.8037C19.8766 16.6921 20.5733 18.1558 20.5635 20.0938C20.551 22.3663 19.1453 24.1131 16.7402 24.7246C19.3895 25.0138 21.3358 26.7687 21.3359 29.665C21.3359 30.9755 20.8822 32.231 20.124 33.2363C20.9831 32.5646 22.1776 31.6393 22.9062 31.0684C23.4992 30.2636 23.8103 29.1274 23.8584 27.876C23.968 25.0189 22.375 22.9716 19.7061 23.0996H19.7051C20.1168 22.8105 20.8528 22.2788 21.4766 21.8457C21.5138 21.8198 21.549 21.7915 21.585 21.7646ZM8.92188 31.5742L8.9209 31.5752H12.3291C13.1908 31.5752 13.8595 31.5026 14.3428 31.2012C15.0035 30.7902 15.3213 30.0751 15.3213 29.1621C15.3213 28.2493 14.9912 27.6218 14.3135 27.2588C13.8488 27.0103 13.221 26.9649 12.4248 26.9648H8.92188V31.5742ZM124.751 21.915C124.906 22.4736 125.099 23.1671 125.215 23.668H125.272C125.406 23.1671 125.561 22.4539 125.696 21.915L126.854 17.2881H130L127.8 23.4951C126.448 27.2347 125.541 28.7198 124.479 29.6641C123.477 30.5502 122.395 30.8776 121.643 30.9551L121.023 28.4873C121.39 28.4099 121.854 28.2367 122.298 27.9863C122.741 27.7542 123.243 27.2732 123.514 26.8105C123.611 26.6572 123.668 26.5216 123.668 26.3867C123.668 26.2909 123.65 26.1359 123.553 25.9053L120.078 17.2881H123.343L124.751 21.915ZM94.1826 17.0762C97.3278 17.0764 98.3124 18.9276 98.3125 21.1436H98.3115V24.4404C98.3115 25.3268 98.3513 26.1942 98.4668 26.7148H95.8223L95.6494 25.7705H95.5908C94.9738 26.5215 94.009 26.9266 92.8896 26.9268C90.9781 26.9268 89.8389 25.5393 89.8389 24.0352C89.839 21.587 92.0403 20.4307 95.3789 20.4307V20.3145C95.3787 19.8136 95.1073 19.1007 93.6602 19.1006C92.6965 19.1006 91.673 19.4281 91.0547 19.7939L90.5156 17.9238C91.1723 17.558 92.4658 17.0762 94.1826 17.0762ZM115.434 17.0566C118.483 17.0568 119.641 19.4271 119.642 21.7598C119.642 22.2605 119.584 22.7056 119.545 22.9365H119.544L113.465 22.917C113.562 24.1507 114.758 24.7285 116.129 24.7285C117.133 24.7285 117.943 24.5942 118.734 24.3242L119.121 26.3096C118.156 26.7147 116.978 26.9072 115.704 26.9072C112.5 26.9071 110.667 25.0567 110.667 22.0879C110.667 19.6974 112.173 17.0568 115.434 17.0566ZM82.6494 13.626C84.4452 13.626 85.546 13.7998 86.4912 14.3584C87.3981 14.8397 88.0349 15.7265 88.0352 16.9219C88.0352 18.0587 87.3598 19.12 85.9121 19.6787V19.7168C87.398 20.1024 88.4979 21.24 88.498 22.917C88.498 24.1113 87.9572 25.0369 87.1475 25.6729C86.2009 26.4255 84.6185 26.8496 82.0322 26.8496C80.5857 26.8496 79.5051 26.7532 78.8486 26.6562H78.8467V13.9141C79.6188 13.7606 81.1634 13.626 82.6494 13.626ZM68.6318 13.585C70.3109 13.585 71.6045 13.9146 72.2412 14.2031L71.623 16.5732C70.9089 16.2454 70.0405 16.0147 68.6123 16.0146C66.1612 16.0146 64.2892 17.5192 64.2891 20.2178C64.2891 22.9166 65.9863 24.4785 68.3994 24.4785C69.0557 24.4785 69.597 24.4014 69.8281 24.3057V21.5674H67.8203V19.2734H72.665V26.1162C71.7579 26.4244 70.0394 26.8485 68.3223 26.8486C65.9485 26.8486 64.2305 26.2503 63.0332 25.1133C61.8569 23.9763 61.2012 22.279 61.2012 20.3711C61.2211 16.0531 64.3664 13.585 68.6318 13.585ZM54.624 18.4814C55.396 19.8505 56.1484 21.4708 56.7471 22.9355H56.7852C56.6118 21.2203 56.5537 19.4647 56.5537 17.499V13.7217H59.2559V26.7148H56.168L53.3887 21.7021C52.6167 20.2951 51.7482 18.6377 51.1299 17.1152H51.0527C51.1498 18.85 51.1885 20.6806 51.1885 22.8008V26.7129H48.4873V13.7197H51.9219L54.624 18.4814ZM103.574 26.7148H100.642V17.2881H103.574V26.7148ZM108.857 26.7139H105.925V13.0273H108.857V26.7139ZM95.4756 22.2607C93.9331 22.2607 92.7358 22.6282 92.7354 23.7451C92.7354 24.4978 93.2371 24.8643 93.8936 24.8643C94.6075 24.8641 95.2249 24.3829 95.418 23.7852C95.456 23.6319 95.4756 23.4571 95.4756 23.2842V22.2607ZM81.7627 24.6328C82.0515 24.6905 82.3999 24.6904 82.9014 24.6904C84.2326 24.6903 85.4102 24.1108 85.4102 22.8008C85.4097 21.4913 84.2318 20.9708 82.7656 20.9707H81.7627V24.6328ZM8.91895 23.0166H11.834C12.5698 23.0166 13.1568 22.959 13.6055 22.7646V22.7637C14.4275 22.408 14.7939 21.7147 14.7939 20.7588C14.7938 19.8731 14.452 19.249 13.7617 18.9033C13.2748 18.6585 12.6152 18.586 11.7783 18.5859H8.91895V23.0166ZM19.7373 5.54297L28.7363 5.54785C30.5929 5.54785 31.811 5.76249 32.833 6.53027C33.8439 7.2907 34.4716 8.53108 34.4297 10.3682C34.4025 11.5604 33.909 12.9927 32.6973 13.8613C32.1168 14.271 31.6531 14.5973 30.8125 15.2051C33.1029 14.5136 35.0633 16.461 35.0635 19.0645C35.0635 20.242 34.7011 21.4767 33.9639 22.4746C34.8416 21.7868 35.5332 21.2313 36.2002 20.7256C36.8103 19.8692 37.1729 18.5515 37.1729 17.4258C37.1728 14.8579 35.5739 12.9876 33.4326 13.3418L33.4307 13.3379C34.0235 12.9122 34.187 12.7935 34.6553 12.4688C35.8092 11.6653 36.5953 10.3626 36.583 8.87988C36.5694 7.35303 36.088 6.04843 35.002 5.19824C33.805 4.26198 32.3168 4.24902 30.416 4.24902H22.0996L19.7373 5.54297ZM115.28 19.0039C114.026 19.0039 113.524 20.1401 113.446 20.9111H116.92C116.92 20.2173 116.611 19.0041 115.28 19.0039ZM83.0166 15.7656C82.3606 15.7656 81.9938 15.8037 81.7627 15.8613V18.8701H82.7275C84.291 18.87 85.1016 18.253 85.1016 17.2695C85.1013 16.2864 84.3475 15.7657 83.0166 15.7656ZM102.126 12.9307C103.13 12.9308 103.748 13.606 103.768 14.4922C103.768 15.3602 103.13 16.0546 102.107 16.0547H102.088C101.103 16.0545 100.467 15.3798 100.467 14.4922C100.467 13.6048 101.122 12.9308 102.126 12.9307Z" fill="#213C58"/>
</svg>
