<svg id="Group_400" data-name="Group 400" xmlns="http://www.w3.org/2000/svg" xmlns:xlink="http://www.w3.org/1999/xlink" width="221" height="130.364" viewBox="0 0 221 130.364">
  <defs>
    <clipPath id="clip-path">
      <rect id="Rectangle_461" data-name="Rectangle 461" width="221" height="130.364" fill="#fff"/>
    </clipPath>
  </defs>
  <g id="Group_396" data-name="Group 396" clip-path="url(#clip-path)">
    <path id="Path_3696" data-name="Path 3696" d="M51.917,55.548a18.346,18.346,0,0,0-.576-4.591A10,10,0,0,0,49.6,47.2a4.939,4.939,0,0,0-1.726-1.456,4.536,4.536,0,0,0-4.287.025A5.9,5.9,0,0,0,41.8,47.5a10.592,10.592,0,0,0-1.558,3.461,17,17,0,0,0-.557,4.366,18.338,18.338,0,0,0,.574,4.715,9.712,9.712,0,0,0,1.857,3.688,5.154,5.154,0,0,0,1.67,1.354,4.6,4.6,0,0,0,2.006.451,4.422,4.422,0,0,0,2.171-.552,5.324,5.324,0,0,0,1.781-1.6,10.674,10.674,0,0,0,1.615-3.512,16.437,16.437,0,0,0,.556-4.315m2.97-.175a19.658,19.658,0,0,1-.78,5.569A13.393,13.393,0,0,1,51.9,65.481a8.92,8.92,0,0,1-2.728,2.409,6.832,6.832,0,0,1-3.377.828,7.219,7.219,0,0,1-3.343-.8,8.709,8.709,0,0,1-2.785-2.409,13.482,13.482,0,0,1-2.191-4.515,20.726,20.726,0,0,1-.76-5.669,20.3,20.3,0,0,1,.65-5.293,13.507,13.507,0,0,1,2.06-4.365A8.94,8.94,0,0,1,42.32,42.98a6.907,6.907,0,0,1,3.491-.952,7.012,7.012,0,0,1,3.49.878,8.311,8.311,0,0,1,2.8,2.583,14.121,14.121,0,0,1,2.1,4.467,20.1,20.1,0,0,1,.687,5.418" transform="translate(11.307 12.943)" fill="#fff"/>
    <path id="Path_3697" data-name="Path 3697" d="M69.847,67.912h-2.84V65l-.02-.025a25.2,25.2,0,0,1-3.248,2.383,7.176,7.176,0,0,1-3.806,1.2,4.628,4.628,0,0,1-4.009-2.057,9.906,9.906,0,0,1-1.448-5.768q0-2.007.018-4.766.037-2.786.038-4.04,0-2.282-.056-5.618-.037-3.361-.037-3.789h2.932q0,.328-.037,3.614T57.3,51.382q0,1.73.017,4.314t.02,3.664A10.048,10.048,0,0,0,58.1,63.7a2.446,2.446,0,0,0,2.339,1.379,7.051,7.051,0,0,0,3.619-1.2,16.9,16.9,0,0,0,2.915-2.106q0-.3.017-2.76.02-2.484.02-6.171,0-2.633-.056-6.3-.037-3.688-.037-4.014h2.932q0,.428-.037,2.834-.037,2.384-.037,8.154,0,3.235.017,5.695.02,2.433.056,8.7" transform="translate(16.765 13.096)" fill="#fff"/>
    <path id="Path_3698" data-name="Path 3698" d="M82.193,66.2l-.335,3.186c-.086.017-.3.033-.649.05s-.627.024-.872.025a7.411,7.411,0,0,1-5.755-2.131q-1.948-2.16-1.949-6.6,0-2.782.018-5.968.037-3.188.038-7.9H69.571V43.927h3.286V37.981h2.692v5.946h6.644v2.935H75.548c0,.351-.013,1.4-.038,3.134s-.018,3.029-.018,3.862v6.221q0,3.265,1.3,4.718a5.155,5.155,0,0,0,4.01,1.43h.8c.31-.017.506-.025.594-.025" transform="translate(21.425 11.696)" fill="#fff"/>
    <path id="Path_3699" data-name="Path 3699" d="M98.219,70.593H95.285q.02-.749.038-4.515.035-3.787.037-4.992,0-1.3-.017-3.836,0-2.558-.02-3.739a8.714,8.714,0,0,0-.816-4.138,2.839,2.839,0,0,0-2.637-1.254A6.164,6.164,0,0,0,89.16,49a21.11,21.11,0,0,0-3.49,2.332l.075,19.265H82.811q.02-.977.038-7.877.035-6.924.037-11.388,0-2.908-.018-7.325,0-4.44-.056-10.185h2.934L85.67,48.093l.018.025a25.565,25.565,0,0,1,4.344-2.785,7.2,7.2,0,0,1,2.9-.777,4.436,4.436,0,0,1,3.8,2.031,9.278,9.278,0,0,1,1.448,5.52q0,3.161-.037,5.469-.02,2.284-.02,3.712,0,2.284.037,5.242t.056,4.064" transform="translate(25.502 10.415)" fill="#fff"/>
    <path id="Path_3700" data-name="Path 3700" d="M102.79,70.593H99.856q.02-.3.038-7.325.035-7.047.038-11.689,0-2.984-.018-7.525,0-4.567-.058-10.236h2.934q-.037,3.865-.056,8.956-.02,5.07-.017,8.554,0,7.6.037,13.3t.037,5.97" transform="translate(30.751 10.415)" fill="#fff"/>
    <path id="Path_3701" data-name="Path 3701" d="M117.952,59.73V57.572q0-1.3-.02-3.01a25.629,25.629,0,0,0-2.858.453,12.216,12.216,0,0,0-3.435,1.1,5.513,5.513,0,0,0-1.856,1.581,4.185,4.185,0,0,0-.8,2.608,4.97,4.97,0,0,0,.687,2.76,4.447,4.447,0,0,0,1.873,1.58,8.143,8.143,0,0,0,2.006.627,14.767,14.767,0,0,0,2.339.177c.247,0,.551-.008.91-.026l1.131-.05V63.718q.02-1.479.02-3.988m2.84-6.045q0,6.221-.018,10.134t-.02,4.214c-.123.018-.7.075-1.725.175a36.23,36.23,0,0,1-3.972.175,12.866,12.866,0,0,1-3.065-.375,8.871,8.871,0,0,1-2.654-1.079,7.119,7.119,0,0,1-2.413-2.534,7.724,7.724,0,0,1-.909-3.864,7.624,7.624,0,0,1,1.076-4.112,8.19,8.19,0,0,1,3.025-2.836,13.9,13.9,0,0,1,3.212-1.2,29.424,29.424,0,0,1,4.6-.827,8.448,8.448,0,0,0-.725-3.211,4.228,4.228,0,0,0-1.8-1.906,5.8,5.8,0,0,0-1.818-.628,12.176,12.176,0,0,0-2.34-.2c-.557,0-1.033.018-1.43.051s-.909.075-1.577.124l.3-3.337c.187-.016.552-.041,1.1-.075q.834-.075,2.263-.075a11.289,11.289,0,0,1,3.9.627,6.314,6.314,0,0,1,2.859,1.983,8.845,8.845,0,0,1,1.6,3.236,21.749,21.749,0,0,1,.538,5.543" transform="translate(32.648 13.025)" fill="#fff"/>
    <path id="Path_3702" data-name="Path 3702" d="M138.6,70.094l-1.764,2.182q-4.1-5.644-7.332-9.833-3.212-4.189-3.545-4.616v-.051q.443-.551,3.9-5.318,3.453-4.791,5.588-7.852l1.8,2.509q-2.211,2.886-4.641,6.1-2.415,3.188-3.027,3.989v.026l2.71,3.861q2.729,3.865,6.312,9.008m-13.291.5h-2.934q.02-.451.038-6.773.035-6.321.037-12.944,0-2.835-.017-7.151,0-4.312-.058-9.908h2.934q-.055,4.44-.073,10.311V51.1q0,2.586.037,10.836.035,8.23.037,8.655" transform="translate(37.687 10.415)" fill="#fff"/>
    <path id="Path_3703" data-name="Path 3703" d="M149.659,51.635a9.777,9.777,0,0,0-1.58-4.867,3.909,3.909,0,0,0-3.341-1.78,4.223,4.223,0,0,0-3.471,1.806,10.828,10.828,0,0,0-1.931,4.841Zm2.876,2.809H139.114a14.429,14.429,0,0,0,.836,4.892,8.722,8.722,0,0,0,2.5,3.661,7.411,7.411,0,0,0,2.452,1.406,10.629,10.629,0,0,0,3.3.451q1.057,0,1.931-.076.891-.075,1.1-.1l-.336,3.337c-.1.018-.426.042-.982.075q-.836.077-1.967.076a12.17,12.17,0,0,1-5.181-1.028,9.872,9.872,0,0,1-3.6-2.885,13.81,13.81,0,0,1-2.06-3.912,15.916,15.916,0,0,1-.836-5.295,19.584,19.584,0,0,1,.632-5.168A15.536,15.536,0,0,1,138.8,45.59a7.875,7.875,0,0,1,2.709-2.634,6.784,6.784,0,0,1,3.38-.929,6.152,6.152,0,0,1,5.384,2.836,12.11,12.11,0,0,1,1.67,3.963,24.4,24.4,0,0,1,.594,5.619" transform="translate(41.966 12.942)" fill="#fff"/>
    <path id="Path_3704" data-name="Path 3704" d="M163,60.61a7.835,7.835,0,0,1-.668,3.31,6.65,6.65,0,0,1-1.745,2.358,7.845,7.845,0,0,1-2.692,1.454,11.567,11.567,0,0,1-3.415.477,15.2,15.2,0,0,1-1.894-.126c-.644-.067-1.008-.11-1.095-.126l-.113-3.286c.113.017.539.067,1.282.15q1.13.1,2.246.1a12.027,12.027,0,0,0,1.67-.149,4.541,4.541,0,0,0,1.69-.553,3.659,3.659,0,0,0,1.373-1.354,3.922,3.922,0,0,0,.446-1.933,3.1,3.1,0,0,0-.39-1.655,5.425,5.425,0,0,0-1.076-1.254,11.874,11.874,0,0,0-2.043-1.428,20.212,20.212,0,0,1-2.153-1.481,7.05,7.05,0,0,1-1.911-2.434,7.677,7.677,0,0,1-.65-3.261,7.348,7.348,0,0,1,.742-3.337,6.563,6.563,0,0,1,2.023-2.382,5.9,5.9,0,0,1,2.413-1.054,12.824,12.824,0,0,1,2.579-.276c.757,0,1.375.017,1.857.05s.761.051.836.051l.2,3.335q-.13,0-1.152-.1a21.931,21.931,0,0,0-2.208-.1,6.535,6.535,0,0,0-1.632.2,4.022,4.022,0,0,0-1.3.577,3.262,3.262,0,0,0-1.152,1.33,3.811,3.811,0,0,0-.334,1.5,3.06,3.06,0,0,0,.483,1.732,5.1,5.1,0,0,0,1.133,1.229,24.977,24.977,0,0,0,2.078,1.431,17.958,17.958,0,0,1,1.914,1.329,7.7,7.7,0,0,1,1.967,2.458A7.021,7.021,0,0,1,163,60.61" transform="translate(46.616 13.049)" fill="#fff"/>
    <path id="Path_3705" data-name="Path 3705" d="M18.692,112.435l-.868.581-.557,1.109.629,1.553.6.466.517-1.3.171-1.522ZM9.946,52.626c.422,1.993-3.105,5.915-3.1,9.187-.335,2.152-1.308.377-2.188-.031-.712-3.813,2.7-7.811,5.292-9.156M32.3,110.236l-.242-1.139c-1.15-.748-2.731-2.592-3.507-.642.145,2.545,2.748.8,3.94,1.738Zm.729-10.567-.2-.948c-.73-.638-2.736.186-1.7,1.352ZM6.223,95.752c.539-2.592-2.252-2.2-3.4-2.946-.272,1.049.879,1.8,1.194,2.82-.115-.075,2.229.22,2.208.126M49,43.73c-.912-1.492-1.2-3.314-2.547-4.515.293-.955,1.445-1.6.519-2.688-9.5-12.058-23.253.679-31.993,6.2C10.156,48.022,3.7,52.168,1.028,59.182c-.145,2.112,1.22,3.407,2.607,4.8,3.717.7,1.048,4.931,3.713,6.744,2.442,2.158,6.006,1.2,9.177.727,1.761.815,3.746-.1,5.391.637A119.682,119.682,0,0,1,35.5,72.08c1.63,1.141,3.9,2.044,4.219,4.456-.082,4.281-4.077,7.41-4.484,11.561-5.465,4.136-10.247,8.224-15.524,12.321C12.756,105.962,4.85,111.212,0,119.184c1.1-.433,1.4.99,1.9,1.478,3.979-6,10.007-10.753,15.278-15.341,1.653-.154,1.426-1.694,2.868-1.9,6.268-5.5,13.749-8.077,20.01-14.068,1.657-2.929,6.822-5.217,4.567-9.3-.114-1.464-1.778-2.3-1.092-3.733C41.989,69.51,34.153,68.1,28.957,66.035c-5.5-1.607-10.49,2.428-15.728.17-.235-.644.517-1.3.7-1.834a35.22,35.22,0,0,1,10.186-3.851l.752-.655c2.2-.37,3.686-.388,6-.681,2.73-.68,5.592,1.588,8.363,1.1l-.294-2.318c-3.743-1.286-7.773-1.124-11.751-1.169-.439-.205-1.813-.607-1.29-1.413,3.368-1.409,4.809-4.888,8.009-6.163,3.6-3.143,8.341-2.269,12.452-2.052,1.728-.268,2.09-1.831,2.566-3.321Z" transform="translate(0 9.702)" fill="#fff"/>
    <path id="Path_3706" data-name="Path 3706" d="M59.237,91.8h-3.08q.02-1.108.038-4.086.037-2.994.037-7.447H52.909q-3.045-.016-4.574-.017-1.848,0-4.443.017h-2.8q0,5.138.018,7.782.037,2.641.058,3.751H38.086q.018-1.108.056-3.936t.038-9.557q0-2.033-.038-4.953-.02-2.921-.056-6.3h3.082q0,2.811-.038,5.526-.037,2.7-.038,5.139c.149,0,.957.008,2.428.018h9.688l3.024-.018q0-2.439-.037-5.139t-.038-5.526h3.08q-.037,2.792-.075,6.452-.018,3.659-.02,5.968,0,5.437.038,8.337.037,2.882.056,3.992" transform="translate(11.729 20.65)" fill="#fff"/>
    <path id="Path_3707" data-name="Path 3707" d="M79.315,79.9a14.03,14.03,0,0,0-.821-4.713,9.555,9.555,0,0,0-2.465-3.9,8.265,8.265,0,0,0-2.519-1.662,7.816,7.816,0,0,0-3.1-.594,7.994,7.994,0,0,0-5.75,2.367,10.253,10.253,0,0,0-2.333,3.66,13.462,13.462,0,0,0,.02,9.315,9.993,9.993,0,0,0,2.408,3.568,8.475,8.475,0,0,0,2.519,1.645,8.356,8.356,0,0,0,6.217.017,8.526,8.526,0,0,0,2.633-1.737,10.252,10.252,0,0,0,2.3-3.381,11.428,11.428,0,0,0,.9-4.586m3.191-.294a14.188,14.188,0,0,1-1.045,5.506,12.123,12.123,0,0,1-2.689,4.121,11.289,11.289,0,0,1-8.363,3.458,12.259,12.259,0,0,1-4.367-.777,11.257,11.257,0,0,1-3.7-2.346,12.612,12.612,0,0,1-2.931-4.234,15.653,15.653,0,0,1-.224-10.942,12.433,12.433,0,0,1,2.632-4.214,11.159,11.159,0,0,1,3.865-2.68,12.278,12.278,0,0,1,9.39-.056,11.17,11.17,0,0,1,3.715,2.476,12.132,12.132,0,0,1,2.762,4.365,14.773,14.773,0,0,1,.952,5.323" transform="translate(17.957 20.489)" fill="#fff"/>
    <path id="Path_3708" data-name="Path 3708" d="M101.362,67.054q0,3.549-.037,5.879-.039,2.309-.037,4.027v3.6q.016,1.479.017,2.571a10.205,10.205,0,0,1-.653,3.787,7.653,7.653,0,0,1-1.941,2.847A9.425,9.425,0,0,1,95.5,91.693a14.5,14.5,0,0,1-8.812,0,9.23,9.23,0,0,1-3.231-1.923A7.858,7.858,0,0,1,81.5,86.923a10.459,10.459,0,0,1-.634-3.787V80.565c.013-1,.017-2.2.018-3.6q0-1.717-.037-4.027-.039-2.329-.038-5.879h3.079q-.018.463-.055,3.16-.018,2.682-.018,7.062V80.03q.018,1.422.018,2.919a6.545,6.545,0,0,0,1.961,5.14,7.713,7.713,0,0,0,5.3,1.736,7.781,7.781,0,0,0,5.433-1.665q1.811-1.662,1.81-5.211V80.03q.02-1.424.02-2.755,0-4.381-.038-7.172c-.025-1.861-.037-2.876-.037-3.05Z" transform="translate(24.886 20.65)" fill="#fff"/>
    <path id="Path_3709" data-name="Path 3709" d="M115.023,84.9a6.109,6.109,0,0,1-.916,3.346,6.874,6.874,0,0,1-2.426,2.311,11.662,11.662,0,0,1-3.211,1.239,18.446,18.446,0,0,1-4.013.407q-1.195,0-2.484-.073-1.269-.077-1.474-.093l-.15-2.662q.261.037,1.457.146c.8.063,1.734.094,2.819.094a16.382,16.382,0,0,0,2.557-.259,9.079,9.079,0,0,0,2.409-.667A4.588,4.588,0,0,0,111.27,87.4a3.017,3.017,0,0,0,.6-1.921,3.554,3.554,0,0,0-.6-2.09,5.771,5.771,0,0,0-1.942-1.662q-.877-.52-2.276-1.165a24.611,24.611,0,0,1-2.52-1.332,7.758,7.758,0,0,1-2.726-2.5A5.864,5.864,0,0,1,101,73.7a5.7,5.7,0,0,1,.729-2.938,7.378,7.378,0,0,1,1.921-2.145,8.353,8.353,0,0,1,2.913-1.331,15.607,15.607,0,0,1,3.847-.442q1.158,0,2.333.075c.8.035,1.249.06,1.362.073l.263,2.68-1.364-.131c-.8-.073-1.78-.11-2.949-.11a10.277,10.277,0,0,0-2.166.241,6.352,6.352,0,0,0-1.94.7,3.85,3.85,0,0,0-1.27,1.184,3.04,3.04,0,0,0-.523,1.774,3.216,3.216,0,0,0,.542,1.755,6.331,6.331,0,0,0,2.073,1.72q.763.463,2.016,1.074c.845.392,1.673.825,2.482,1.292a8.2,8.2,0,0,1,2.8,2.514,5.59,5.59,0,0,1,.952,3.215" transform="translate(30.903 20.585)" fill="#fff"/>
    <path id="Path_3710" data-name="Path 3710" d="M118.818,91.8h-3.08q.018-1.108.055-3.954t.038-8.172q0-2.107-.018-5.526t-.075-7.1h3.08q-.037,2.645-.075,6.155-.02,3.492-.02,5.712,0,5.619.038,8.706.037,3.068.056,4.176" transform="translate(35.642 20.65)" fill="#fff"/>
    <path id="Path_3711" data-name="Path 3711" d="M145.253,67.093q-.037,2.9-.075,6.635-.02,3.736-.02,5.38,0,5.248.038,8.355.037,3.086.037,3.288l-2.482,1.2q-5.637-7.54-10.547-13.6-4.893-6.08-5.657-7.024l-.037.018q0,4.954.055,12.181.075,7.21.094,8.317h-2.913q.02-.463.056-3.29t.038-7.875q0-2.013-.02-5.342t-.075-7.079l2.838-1.331q.335.428,5.712,7.191,5.4,6.767,10.156,12.569l.038-.02q0-2.845-.076-9.573-.075-6.745-.076-10Z" transform="translate(38.108 20.61)" fill="#fff"/>
    <path id="Path_3712" data-name="Path 3712" d="M164.7,79.144q-.037,1.33-.075,3.125c-.026,1.182-.037,2.163-.037,2.938q0,1.87.037,4.179c.024,1.526.037,2.379.037,2.549-.111.013-.485.035-1.12.073s-1.25.075-1.848.075a29.6,29.6,0,0,1-7.86-.942,13.89,13.89,0,0,1-5.9-3.29,10.885,10.885,0,0,1-2.5-3.568A12.112,12.112,0,0,1,144.5,79.4a10.445,10.445,0,0,1,1.792-6.007,13.157,13.157,0,0,1,4.965-4.289,18.677,18.677,0,0,1,4.873-1.664,28.062,28.062,0,0,1,5.713-.573c.31,0,.6.005.858.018h.727l.225,2.662h-.6c-.349-.013-.629-.017-.841-.02a26.451,26.451,0,0,0-5.227.481,15.688,15.688,0,0,0-4.145,1.406,9.745,9.745,0,0,0-3.789,3.42,8.481,8.481,0,0,0-1.363,4.6,8.724,8.724,0,0,0,1.419,5.121,10.033,10.033,0,0,0,3.7,3.16,15.986,15.986,0,0,0,4.256,1.443,26.219,26.219,0,0,0,4.648.405q0-.294-.018-2.864-.02-2.586-.075-7.56Z" transform="translate(44.5 20.593)" fill="#fff"/>
    <path id="Path_3713" data-name="Path 3713" d="M212.62,126.1H27.21v-5.407h180V51.959L117.648,4.946,120.162.158,212.62,48.69Z" transform="translate(8.379 0.049)" fill="#fff"/>
    <path id="Path_3714" data-name="Path 3714" d="M64.777,26.824l.9.059.417-.909ZM124.372,5.406c.286.526-.336.637-.7.561-.184-.173-.823-.507-.752-1.048M112.21,3.235l2.356-1.783a2.789,2.789,0,0,0-2.773.1c-.641-.424-1.584.773-1.89-.292C111.571.3,113.285.691,115.143,0c.212.976-.229,1.171-.382,1.893-.789.564-1.465,1.661-2.46,1.339ZM42.355,41.125c-.82-.419-.687-1.766-1.763-1.818a.967.967,0,0,1,.841-1.55c3.346-1.64-1.6-2.362-.517-4.549,8.163-4.671,16.58-9.8,25.219-13.683,1.371-1.749,3.634-1.022,4.93-2.409a78.643,78.643,0,0,1,9.273-3.637c3.144-2.258,7.069-2.663,10.224-4.654a12.737,12.737,0,0,0,4.583-2.039l.106.445c.446-.017.9.056,1.062-.307l-.727-.332c4.166-1.219,7.5-3.216,11.568-4.612.54.071.332-.727.8-.207.4-1.356,1.07-.128,1.881.024a2.2,2.2,0,0,0-.1,2.331c-4.881,1.245-9.842,2.761-14.711,4.363-2.922.908-5.616,3.241-8.277,3.96.373.433.617-.29,1.163-.042L86.16,13.544l-.029-.8-.714.026c-.356.1-.876.568-.6.825l.625-.021c-1.284,1.656-3.872,1.925-5.523,3.326-4.553,2.934-8.555,6.3-13.488,8.617l-.073.451c2.592-.092,4.532-3.562,7.085-2.218-3.709,1.473-7.644,4.206-11.277,5.228.7-.561,2.484-.623,1.993-1.86-7.474,3.932-14.458,9.011-21.8,14.011M65.787,30.1c-.026-.714.868-.747,1.4-.765.383.7-.3,1.8-1.4.765m-5,3.129c-.561-.7,2.892-1.8,4.478-2.484-1.305,1.031-2.952,2.609-4.478,2.484M35.785,40.1c-1.579.951-2.978-.7-4.511-1.006l2.765-.277c.552.43,1.623.3,1.742,1.193Z" transform="translate(9.631)" fill="#fff"/>
  </g>
</svg>
